<?xml version="1.0" encoding="utf-8"?>
<!-- Generator: Adobe Illustrator 16.0.0, SVG Export Plug-In . SVG Version: 6.00 Build 0)  -->
<!DOCTYPE svg PUBLIC "-//W3C//DTD SVG 1.1//EN" "http://www.w3.org/Graphics/SVG/1.1/DTD/svg11.dtd">
<svg version="1.1" id="Layer_1" xmlns="http://www.w3.org/2000/svg" xmlns:xlink="http://www.w3.org/1999/xlink" x="0px" y="0px"
	 width="66px" height="66px" viewBox="0 0 66 66" enable-background="new 0 0 66 66" xml:space="preserve">
<g>
	<g>
		<g>
			<path fill="#112827" d="M60.061,23H60v-1.955C60,18.678,58.12,17,55.875,17H6.072C3.827,17,2,18.678,2,21.045v23.91
				C2,47.322,3.827,49,6.072,49h49.803C58.12,49,60,47.322,60,44.955V43h0.061C62.232,43,64,41.433,64,39.262V26.738
				C64,24.567,62.232,23,60.061,23z"/>
			<path fill="#363F3E" d="M55.875,49L23.623,17H6.072C3.827,17,2,18.678,2,21.045v23.91C2,47.322,3.827,49,6.072,49H55.875
				C55.949,49,55.875,49,55.875,49z"/>
			<path fill="#555E5C" d="M34.812,47H6.072C4.909,47,4,46.24,4,44.955v-23.91c0-0.8,0.442-1.438,0.997-1.857L3.536,17.84
				C2.542,18.578,2,19.73,2,21.045v23.91C2,47.322,3.827,49,6.072,49h30.826L34.812,47z"/>
		</g>
		<path fill="#1BCEB8" d="M36.279,29.559C36.103,29.277,35.792,29,35.458,29h-6.47l4.069-8.34c0.232-0.481,0.031-1.008-0.451-1.24
			c-0.484-0.232-1.062-0.002-1.293,0.479l-7.457,15.488c-0.146,0.301-0.125,0.766,0.052,1.048S24.396,37,24.729,37h6.47l-4.069,8.34
			c-0.232,0.481-0.031,1.008,0.451,1.24c0.136,0.064,0.279,0.069,0.421,0.069c0.36,0,0.706-0.215,0.872-0.562l7.457-15.534
			C36.477,30.254,36.456,29.842,36.279,29.559z M32.132,35h-5.861l1.785-4h5.861L32.132,35z"/>
		<path fill="#37F7D7" d="M32.009,35h-5.738l1.785-4h0.252l-1.584-1.568l-2.867,5.932c-0.146,0.3-0.125,0.777,0.052,1.059
			C24.085,36.705,24.396,37,24.729,37h6.47l-4.069,8.34c-0.232,0.481-0.031,1.008,0.451,1.24c0.136,0.064,0.279,0.069,0.421,0.069
			c0.36,0,0.706-0.215,0.872-0.562l4.628-9.641L32.009,35z"/>
	</g>
	<g>
		<g>
			<circle fill="#37F7D7" cx="9.672" cy="33" r="0.605"/>
			<circle fill="#37F7D7" cx="13.971" cy="33" r="0.605"/>
			<circle fill="#37F7D7" cx="18.27" cy="33" r="0.605"/>
		</g>
		<g>
			<circle fill="#1BCEB8" cx="41.52" cy="33" r="0.605"/>
			<circle fill="#1BCEB8" cx="45.818" cy="33" r="0.605"/>
			<circle fill="#1BCEB8" cx="50.117" cy="33" r="0.605"/>
		</g>
	</g>
</g>
</svg>
